<?xml version="1.0" encoding="utf-8"?>
<!-- Generator: Adobe Illustrator 22.1.0, SVG Export Plug-In . SVG Version: 6.00 Build 0)  -->
<svg version="1.1" id="Capa_1" xmlns="http://www.w3.org/2000/svg" xmlns:xlink="http://www.w3.org/1999/xlink" x="0px" y="0px"
	 viewBox="0 0 425.2 283.5" style="enable-background:new 0 0 425.2 283.5;" xml:space="preserve">
<style type="text/css">
	.st0{fill:#727176;}
	.st1{fill:none;}
	.st2{fill:#87868A;}
	.st3{opacity:0.2;fill:#5B5B5F;enable-background:new    ;}
	.st4{opacity:0.2;fill:#9A999E;enable-background:new    ;}
	.st5{opacity:0.2;fill:#FFFFFF;enable-background:new    ;}
	.st6{fill:url(#SVGID_1_);}
	.st7{fill:url(#SVGID_2_);}
	.st8{fill:#AEADB3;}
	.st9{opacity:0.2;fill:#C2C3C9;enable-background:new    ;}
	.st10{opacity:0.2;fill:#444242;enable-background:new    ;}
</style>
<path class="st0" d="M299.2,117c3.6-9.8,1-18.5-4.8-26.5c-3.5-4.7-7.6-9-11.6-13.4c-1.4-1.5-2-2.9-0.9-4.8c0.4-0.8,0.5-1.7,0.6-2.6
	c1.5-9.1-5.1-17.9-14.1-20.5c-6.1-1.7-12-0.9-17.9,1.1c-6.6,2.2-12.5,5.6-18,9.7l0,0c-4.3,3.3-8.5,6.9-12.6,10.9l-0.1,0.1
	c-0.2-0.2-0.4-0.3-0.7-0.4c-0.1,0-0.2-0.1-0.3-0.2l-0.2-0.1c-0.6-0.4-1.3-0.8-2-1.1l-0.3-0.2c-0.8-0.4-1.6-0.7-2.3-1l-0.1,0
	c0,0-0.1,0-0.1,0c-3.2-1.2-6.5-1.9-9.8-2c-1,0-2,0-2.9,0.1c-6.5,0.5-12.5,3.2-17.1,7.8c-2.2,2.3-4.1,4.9-5.3,7.7
	c-0.4,0.8-0.8,1.7-1.1,2.6c-0.3,0.9-0.6,1.8-0.7,2.6c0,0.1,0,0.2,0,0.2l-8.6-2.2c-0.4-0.1-0.8,0-1.2,0.2c-0.4,0.2-0.6,0.6-0.7,1
	l-4.5,17.2c-0.1,0.4,0,0.8,0.2,1.2s0.6,0.6,1,0.7l0.5,0.1l-3,11.6c-0.1,0.4,0,0.8,0.2,1.1c0.2,0.3,0.5,0.6,0.9,0.7l19.4,5
	c0.1,0,0.2,0,0.4,0c0.6,0,1.2-0.4,1.4-1.1l3-11.6l0.5,0.1c0.1,0,0.3,0,0.4,0c0.7,0,1.3-0.5,1.5-1.2l4.5-17.2
	c0.2-0.8-0.3-1.7-1.1-1.9l-6.5-1.7c0,0,0,0,0,0c0-0.1,0-0.2,0.1-0.2l0.1-0.3c0.1-0.5,0.3-1.1,0.5-1.8c0.2-0.6,0.4-1.2,0.7-1.8
	c0.9-1.9,2.1-3.7,3.6-5.2c3.1-3.1,7.2-5,11.8-5.3c0.6-0.1,1.3-0.1,2-0.1c2.3,0,4.7,0.5,6.9,1.4L211,76c0.4,0.2,0.9,0.4,1.4,0.6
	c0.1,0,0.2,0.1,0.3,0.1c0.4,0.2,0.7,0.4,1,0.6c-8.3,9.2-14.8,18.8-19.3,28.3c0,0,0,0,0,0c-0.9,2.5-1.6,5.1-2,7.8
	c-1,6.9-0.1,13.4,4.8,18.9c5,5.6,11.1,8.1,18.4,5.8c2.6-0.8,4.1-0.3,5.9,1.4c5.7,5.6,11.4,11.1,18.7,14.6c4.2,2.1,8.6,3.1,13.4,2.8
	c4.5-0.3,8.6-2.1,12.8-3.5c3.9-1.2,7.8-2.7,11.8-3.7c3.9-1,7.8-0.6,11.5,1.2c2.1,1,3.5,0.8,4.7-0.5c1.2-1.2,1.4-2.8,0.5-4.4
	c-2.1-3.9-2.4-7.9-1.2-12C295.3,128.3,297.2,122.6,299.2,117z M181.8,119.5c-0.1,0.3-0.3,0.7-0.6,0.8c-0.2,0.1-0.5,0.2-0.7,0.2
	c-0.1,0-0.2,0-0.4,0l-15.8-4.1c-0.2,0-0.3-0.1-0.4-0.2c0,0,0,0,0,0l-0.2,0l0-0.1c-0.4-0.3-0.5-0.9-0.4-1.4l2.3-8.9l0.7,0.2l0,0
	l15.1,3.9v0l2.7,0.7L181.8,119.5z M188.3,92.5c0.3,0.1,0.6,0.3,0.7,0.6c0.2,0.3,0.2,0.6,0.1,0.9l-3.4,13l-0.1,0.4
	c-0.1,0.6-0.6,0.9-1.2,0.9c-0.1,0-0.2,0-0.3,0l-18-4.7c-0.3-0.1-0.6-0.3-0.7-0.6c-0.2-0.3-0.2-0.6-0.1-0.9l0.1-0.4l3.4-13
	c0.2-0.7,0.8-1,1.5-0.9l6.6,1.7l6.9,1.8L188.3,92.5z M268.7,66.6c0.7-2.4,1.6-4.7,2.4-7.1c0.1-0.2,0.2-0.3,0.4-0.6
	c3,1.5,5.1,7.1,3.8,10.3c-2-0.4-4-0.8-6-1.3C269,67.8,268.5,67,268.7,66.6z M247.5,59c6.3-2.9,12.6-5,19.7-2.8
	c1.1,0.4,1.4,1.1,1.1,1.9c-0.7,2.6-1.4,5.3-2.4,7.8c-0.8,1.9-1.6,1.9-3.1,0.6c-4-3.6-8.6-5.7-13.9-6.6c-0.5-0.1-1-0.2-1.5-0.4
	C247.5,59.4,247.5,59.2,247.5,59z M244.8,62.5c4.2-0.2,8.2,0.8,11.8,3c1.1,0.7,2.3,1.3,3.4,2c1,1.1,0.9,1.6-0.4,2
	c-5.2,1.8-9.9,4.5-14.3,7.8c-2.9,2.2-5.7,4.5-8.6,6.7c-0.5,0.4-1.1,0.5-1.7,0.8c-0.1-0.6-0.4-1.2-0.3-1.8c0.5-6.3,2.6-12.2,5.4-17.8
	C241.3,63.1,242.8,62.6,244.8,62.5z M236.1,66c0.1,0.1,0.3,0.2,0.4,0.3c-0.8,2.2-1.5,4.3-2.3,6.4c-1.6,4.4-2.3,9-2.3,13.7
	c0,1-0.2,1.8-1.4,1.7c-6.9-0.1-13.3,1.7-19.6,4.3c-0.3,0.1-0.6,0.2-0.9,0.3c-0.1-0.1-0.2-0.3-0.3-0.4
	C217.4,82.4,226.1,73.6,236.1,66z M200.1,123.6c-1.6-4-1.2-8.2-0.2-12.3c0.7-2.6,1.8-5.1,2.7-7.7c0.2,0,0.5,0.1,0.7,0.1
	c0.1,0.4,0.3,0.9,0.4,1.3c0.8,5.5,3.1,10.2,6.8,14.3c1.1,1.2,1.2,2-0.4,2.6c-2.8,1.1-5.6,1.9-8.5,2.7
	C201.2,124.7,200.3,124.1,200.1,123.6z M202.5,127.6c2-0.6,3.8-1.2,5.6-1.8c3.2-1.1,3.2-1.1,3.9,2.2c0.2,1.1,0.7,2.2,1,3.3
	C210.1,132.8,204.6,131,202.5,127.6z M213.4,115.7c-0.5,1.5-1.1,1.8-1.9,0.7c-4-5.2-6.2-10.9-4.9-17.5c0.1-0.6,0.6-1.3,1.1-1.6
	c5.4-3,11.2-5.2,17.4-6c1.2-0.2,2.4-0.2,3.6-0.3c0.1,0.1,0.2,0.3,0.2,0.4c-0.4,0.6-0.7,1.1-1.1,1.7c-2.7,3.4-5.5,6.7-8,10.3
	C217.2,107.1,214.9,111.2,213.4,115.7z M292.2,116c-2,6.3-4,12.5-5.9,18.9c-0.5,1.8-0.4,3.8-0.3,5.8c0,1.3-0.2,1.9-1.7,1.7
	c-4.1-0.4-8.1,0.6-12,1.7c-0.9,0.2-2.1,0.2-2.9-0.2c-4.8-2.5-9.3-5.4-13.2-9.1c-0.2-0.1-0.3-0.3-0.5-0.4c-0.7-0.6-1.4-1.2-2.2-0.3
	c-0.8,0.8-0.4,1.6,0.3,2.2c1.5,1.3,2.9,2.6,4.4,3.7c2.6,1.9,5.3,3.7,8.4,5.9c-1.1,0.5-2,0.9-2.8,1.2c-3.1,1-6.1,2.1-9.2,2.8
	c-4.3,0.9-8.3-0.4-12.1-2.3c-6.7-3.4-11.9-8.8-17.4-13.7c-1.6-1.5-3.2-3-4.8-4.5c-1.8-1.8-2-4-1.6-6.8c0.9,0.7,1.5,1.1,2.1,1.6
	c6.7,5.9,13.4,11.8,20,17.7c0.5,0.4,1,0.9,1.6,1.1c0.5,0.1,1.2-0.1,1.8-0.2c-0.1-0.6,0-1.4-0.4-1.8c-0.8-0.9-1.8-1.6-2.6-2.3
	c-3.4-2.9-6.8-5.8-10.1-8.8c-3.3-2.9-6.6-5.9-9.8-8.9c-1.9-1.8-2-2.6-0.1-5.1c0.6,0.5,1.1,0.9,1.7,1.4c3.4,3.1,6.8,6.2,10.3,9.3
	c0.8,0.7,1.8,1.8,2.7,0.6c0.9-1.1-0.2-1.9-1-2.6c-3.8-3.4-7.6-6.9-11.5-10.4c-0.9-0.8-1-1.5-0.3-2.6c6.1-10.3,14-18.9,23.5-26
	c3.8-2.8,7.8-5.3,11.9-7.6c3.1-1.7,6.5-2.9,10.1-2.7c1.8,0.1,3.4,0.6,4.6,2c4.7,5.2,9.5,10.2,14,15.6c3.3,4,5.8,8.6,6.5,14
	C294,109.8,293.2,112.9,292.2,116z"/>
<g>
	<path d="M139.3,159.8v6.8h-25.3v17.6h22.8v6.7h-22.8v17.6h25.3v6.8h-32.5v-55.6H139.3z"/>
	<path d="M165,196.1l13.6,19.4h-8.4l-9.4-14.1l-9.2,14.1h-8.4l13.4-19.4l-13.1-18.7h8.1l9.4,13.4l8.9-13.4h8.4L165,196.1z"/>
	<path d="M192,191.6v23.9h-7.1v-55.6h32.5v6.8H192v18.3h22.8v6.7H192z"/>
	<path d="M238.9,216.7c-5.6,0-10.2-1.9-13.8-5.8c-3.6-3.8-5.4-8.7-5.4-14.5c0-5.8,1.8-10.6,5.3-14.5c3.5-3.9,8-5.8,13.5-5.8
		c5.6,0,10.1,1.8,13.5,5.5c3.3,3.7,5,8.8,5,15.3l-0.1,0.8h-29.9c0.1,3.7,1.3,6.7,3.7,9c2.4,2.3,5.2,3.4,8.5,3.4
		c4.6,0,8.1-2.3,10.7-6.8l6.4,3.1c-1.7,3.2-4.1,5.7-7.1,7.5C246.2,215.8,242.8,216.7,238.9,216.7z M227.5,191.8h21.8
		c-0.2-2.6-1.3-4.8-3.2-6.6c-1.9-1.7-4.5-2.6-7.8-2.6c-2.7,0-5,0.8-7,2.5C229.4,186.8,228.1,189,227.5,191.8z"/>
	<path d="M293,204.9c0,3.3-1.5,6.1-4.4,8.4c-2.9,2.3-6.6,3.4-11,3.4c-3.8,0-7.2-1-10.1-3c-2.9-2-5-4.6-6.2-7.9l6.4-2.7
		c0.9,2.3,2.3,4.1,4.1,5.3c1.8,1.3,3.7,1.9,5.9,1.9c2.3,0,4.2-0.5,5.7-1.5c1.5-1,2.3-2.1,2.3-3.5c0-2.4-1.9-4.2-5.6-5.4l-6.5-1.6
		c-7.4-1.9-11.1-5.4-11.1-10.7c0-3.5,1.4-6.3,4.2-8.4s6.4-3.1,10.8-3.1c3.4,0,6.4,0.8,9.1,2.4c2.7,1.6,4.6,3.8,5.7,6.5l-6.4,2.6
		c-0.7-1.6-1.9-2.9-3.5-3.8c-1.6-0.9-3.5-1.4-5.5-1.4c-1.9,0-3.5,0.5-5,1.4s-2.2,2.1-2.2,3.4c0,2.2,2,3.7,6.1,4.7l5.8,1.5
		C289.2,195.3,293,199.1,293,204.9z"/>
	<path d="M313.9,216.1c-3.1,0-5.7-1-7.7-2.9c-2-1.9-3.1-4.6-3.1-8v-21.3h-6.7v-6.5h6.7v-11.7h7.2v11.7h9.3v6.5h-9.3v19
		c0,2.5,0.5,4.3,1.5,5.2c1,0.9,2.1,1.4,3.3,1.4c0.6,0,1.1-0.1,1.7-0.2c0.5-0.1,1-0.3,1.5-0.5l2.3,6.4
		C318.6,215.7,316.4,216.1,313.9,216.1z"/>
</g>
<g>
	<path class="st0" d="M179.5,115.5c0,0-0.1,0-0.1,0l-3.9-1c-0.1,0-0.2-0.1-0.3-0.2c-0.1-0.1-0.1-0.2,0-0.3l0.8-3.2
		c0.1-0.2,0.3-0.4,0.5-0.3l3.9,1c0.2,0.1,0.4,0.3,0.3,0.5l-0.8,3.2C179.9,115.4,179.7,115.5,179.5,115.5z M176.2,113.8l3.1,0.8
		l0.6-2.4l-3.1-0.8L176.2,113.8z"/>
</g>
<g>
	<path class="st0" d="M171.2,113.4c0,0-0.1,0-0.1,0l-3.9-1c-0.2-0.1-0.4-0.3-0.3-0.5l0.8-3.2c0-0.1,0.1-0.2,0.2-0.3
		c0.1-0.1,0.2-0.1,0.3,0l3.9,1c0.2,0.1,0.4,0.3,0.3,0.5l-0.8,3.2c0,0.1-0.1,0.2-0.2,0.3C171.4,113.3,171.3,113.4,171.2,113.4z
		 M167.9,111.6l3.1,0.8l0.6-2.4l-3.1-0.8L167.9,111.6z"/>
</g>
<g>
	<path class="st1" d="M100.5,185.1L86,160H66.5l16,27.7l-16,27.7H86l14.5-25.1C101.4,188.7,101.4,186.7,100.5,185.1z"/>
	<polygon class="st0" points="92.1,204.3 87.5,196.3 76.5,215.5 85.9,215.5 92.3,204.5 	"/>
	<path class="st1" d="M100.5,185.1L86,160H66.5l16,27.7l-16,27.7H86l14.5-25.1C101.4,188.7,101.4,186.7,100.5,185.1z"/>
	<polygon class="st2" points="82.5,187.7 87.5,196.3 76.5,215.5 66.5,215.5 	"/>
	<path class="st1" d="M100.5,185.1L86,160H66.5l16,27.7l-16,27.7H86l14.5-25.1C101.4,188.7,101.4,186.7,100.5,185.1z"/>
	<polygon class="st3" points="85.9,215 76.7,215 76.5,215.5 85.9,215.5 92.3,204.5 92.1,204.3 	"/>
	<path class="st1" d="M100.5,185.1L86,160H66.5l16,27.7l-16,27.7H86l14.5-25.1C101.4,188.7,101.4,186.7,100.5,185.1z"/>
	<polygon class="st4" points="66.8,215 66.5,215.5 76.5,215.5 76.7,215 	"/>
	<path class="st1" d="M100.5,185.1L86,160H66.5l16,27.7l-16,27.7H86l14.5-25.1C101.4,188.7,101.4,186.7,100.5,185.1z"/>
	<polygon class="st5" points="66.5,215.5 66.8,215.5 82.7,187.9 82.5,187.7 	"/>
	<path class="st1" d="M100.5,185.1L86,160H66.5l16,27.7l-16,27.7H86l14.5-25.1C101.4,188.7,101.4,186.7,100.5,185.1z"/>
	<g>
		
			<radialGradient id="SVGID_1_" cx="92.1923" cy="-64.0649" r="19.1792" gradientTransform="matrix(1 0 0 -1 0 140.2948)" gradientUnits="userSpaceOnUse">
			<stop  offset="0" style="stop-color:#5B5B5F"/>
			<stop  offset="1" style="stop-color:#5B5B5F"/>
		</radialGradient>
		<polygon class="st6" points="92.3,204.5 92.3,204.5 87.5,196.3 86.4,198.3 		"/>
	</g>
	<path class="st1" d="M100.5,185.1L86,160H66.5l16,27.7l-16,27.7H86l14.5-25.1C101.4,188.7,101.4,186.7,100.5,185.1z"/>
	<g>
		
			<radialGradient id="SVGID_2_" cx="92.1394" cy="-64.1814" r="19.3379" gradientTransform="matrix(1 0 0 -1 0 140.2948)" gradientUnits="userSpaceOnUse">
			<stop  offset="0" style="stop-color:#9A999E"/>
			<stop  offset="1" style="stop-color:#9A999E"/>
		</radialGradient>
		<polygon class="st7" points="86.4,198.3 87.5,196.3 82.5,187.7 80.2,191.8 		"/>
	</g>
	<path class="st1" d="M100.5,185.1L86,160H66.5l16,27.7l-16,27.7H86l14.5-25.1C101.4,188.7,101.4,186.7,100.5,185.1z"/>
	<polygon class="st8" points="76.5,160 66.5,160 92.3,204.5 97.3,195.9 97.3,195.9 	"/>
	<path class="st1" d="M100.5,185.1L86,160H66.5l16,27.7l-16,27.7H86l14.5-25.1C101.4,188.7,101.4,186.7,100.5,185.1z"/>
	<path d="M100.5,190.4c0.9-1.6,0.9-3.6,0-5.2L86,160h-9.5l20.8,35.9L100.5,190.4z"/>
	<path class="st1" d="M100.5,185.1L86,160H66.5l16,27.7l-16,27.7H86l14.5-25.1C101.4,188.7,101.4,186.7,100.5,185.1z"/>
	<polygon class="st9" points="97.3,195.9 97.1,195.7 92.3,204.1 66.8,160 66.5,160 92.3,204.5 97.3,195.9 	"/>
	<path class="st1" d="M100.5,185.1L86,160H66.5l16,27.7l-16,27.7H86l14.5-25.1C101.4,188.7,101.4,186.7,100.5,185.1z"/>
	<path class="st5" d="M86,160.4l14.5,25.1c0.4,0.7,0.6,1.5,0.7,2.4c0-1-0.2-2-0.7-2.9L86,160H66.5l0.3,0.4H86z"/>
	<path class="st1" d="M100.5,185.1L86,160H66.5l16,27.7l-16,27.7H86l14.5-25.1C101.4,188.7,101.4,186.7,100.5,185.1z"/>
	<path class="st10" d="M97.3,195.9l3.2-5.5c0.5-0.9,0.7-1.8,0.7-2.8c0,0.8-0.3,1.7-0.7,2.4l-3.4,5.7L97.3,195.9z"/>
	<path class="st1" d="M100.5,185.1L86,160H66.5l16,27.7l-16,27.7H86l14.5-25.1C101.4,188.7,101.4,186.7,100.5,185.1z"/>
</g>
</svg>
